<?xml version="1.0" encoding="UTF-8"?>
<svg id="Layer_2" data-name="Layer 2" xmlns="http://www.w3.org/2000/svg" viewBox="0 0 98.11 98.3">
  <defs>
    <style>
      .cls-1 {
        fill: #000f33;
      }

      .cls-2 {
        fill: #ec1c24;
      }
    </style>
  </defs>
  <g id="Layer_2-2" data-name="Layer 2">
    <g>
      <path class="cls-2" d="M88.73,22.37c0,2.37-.08,4.74.02,7.1.14,3.22-2.71,6.06-6.02,6-4.48-.08-8.96-.02-13.44-.01-.44,0-.89.04-1.32.14-3.84.89-7.29,2.54-10.19,5.24-1.66,1.55-2.99,3.35-4.1,5.33-1.26,2.26-2.11,4.66-2.73,7.15-.59,2.35-.99,4.74-1.1,7.17-.12,2.67-.27,5.34-.31,8-.04,3.41-.81,6.62-2.48,9.58-5.93,10.45-18.8,13.14-28.2,6.98-3.15-2.07-5.51-4.82-7.12-8.21-1.61-3.37-2.09-6.94-1.72-10.65.97-9.53,8.96-17.09,18.51-17.59,2.17-.11,4.34-.14,6.5-.34,5.32-.51,10.48-1.71,15.33-4.03,3.09-1.48,5.87-3.39,8.11-6.02,2.01-2.37,3.42-5.05,4.01-8.13.08-.41.09-.83.09-1.24v-13.44c0-3.48,2.6-6.05,6.09-6.04,4.67,0,9.35,0,14.03,0,2.72,0,4.9,1.49,5.8,4.05.18.51.21,1.09.22,1.64.03,1.22.01,2.45.01,3.67v3.67-.02Z"/>
      <g>
        <path class="cls-1" d="M46.62,44.46c-1.29.37-2.37.74-3.47.97-2.01.42-4.04.79-6.07,1.12-.47.07-.99-.02-1.47-.14-5.68-1.46-11.15-.94-16.39,1.7-3.71,1.87-6.67,4.6-8.93,8.07-1.36,2.09-2.37,4.35-2.96,6.77-.82,3.33-.98,6.68-.29,10.09.49,2.43,1.29,4.72,2.49,6.86,1.86,3.33,4.37,6.11,7.64,8.1,7.82,4.77,15.81,4.94,23.87.62,3.45-1.85,6.16-4.56,8.21-7.88,2.73-4.43,3.81-9.27,3.27-14.45-.14-1.32-.34-2.64-.77-3.92-.22-.66-.24-1.35-.21-2.06.09-2.35.52-4.64,1.03-6.92.18-.81.45-1.6.72-2.56.4.54.74.95,1.04,1.4,1.17,1.8,2.17,3.69,2.94,5.69.87,2.29,1.46,4.66,1.77,7.1.54,4.13.16,8.17-1.04,12.13-.89,2.94-2.27,5.66-4.04,8.18-3.01,4.27-6.81,7.63-11.51,9.88-9.12,4.37-18.19,4.09-27.1-.64-4.1-2.17-7.41-5.28-10.06-9.08-1.57-2.24-2.81-4.67-3.67-7.27-1.19-3.57-1.76-7.23-1.54-11,.14-2.46.56-4.85,1.26-7.21,1.48-4.93,4.09-9.15,7.78-12.73,9-8.73,22.61-10.8,33.79-5.11,1.11.57,2.17,1.24,3.25,1.87.11.07.21.16.5.39v.02Z"/>
        <path class="cls-1" d="M57.5,42.65c1.76-2.01,3.86-3.52,6.3-4.56.22-.09.52-.07.78-.04.79.11,1.58.37,2.37.37,5.84.03,11.69,0,17.53.02,3.06.01,5.92-1.95,6.95-5.15.22-.67.27-1.42.28-2.14.02-5.87,0-11.75.02-17.61.02-4.25-3.62-7.28-7.28-7.24-5.82.06-11.63,0-17.45.02-2.86,0-5.03,1.29-6.46,3.74-.62,1.06-.96,2.24-.95,3.5.02,5.84,0,11.69.02,17.53,0,.76.27,1.52.4,2.28.04.23.11.51.02.69-1.2,2.36-2.84,4.36-5.06,6.03-.54-.92-1.01-1.81-1.24-2.81-.27-1.2-.34-2.41-.34-3.64.01-7.82-.02-15.64.02-23.46.02-4.04,1.87-7.07,5.39-9.05C60.13.4,61.58.02,63.12.02c8.38,0,16.75-.06,25.13.02,3.77.03,6.59,1.9,8.52,5.13.94,1.57,1.33,3.28,1.33,5.1,0,8.07-.04,16.14.01,24.21.04,5.79-4.72,10.27-10.3,10.23-8.07-.06-16.14-.02-24.21-.01-2.12,0-4.06-.56-5.84-1.72-.07-.04-.13-.1-.19-.16-.02-.02-.02-.05-.06-.16h0Z"/>
      </g>
    </g>
  </g>
</svg>